<svg xmlns="http://www.w3.org/2000/svg" viewBox="0 0 200 200" role="img" aria-label="Illustrated coach portrait placeholder">
  <rect width="200" height="200" fill="#f0e7d8"/>
  <!-- shoulders / clothing -->
  <path d="M40 200 C40 158 66 142 100 142 C134 142 160 158 160 200 Z" fill="#b9762f"/>
  <path d="M86 138 h28 v16 c0 8 -28 8 -28 0 Z" fill="#e7b48f"/>
  <!-- head -->
  <ellipse cx="100" cy="104" rx="34" ry="38" fill="#e7b48f"/>
  <!-- ears -->
  <circle cx="65" cy="106" r="7" fill="#e7b48f"/><circle cx="135" cy="106" r="7" fill="#e7b48f"/>
  <path d="M58 130 C54 86 64 62 100 62 C136 62 146 86 142 130 C140 110 138 96 132 90 C136 78 124 66 100 66 C76 66 64 78 68 90 C62 96 60 110 58 130 Z" fill="#caa05a"/>
</svg>