<svg xmlns="http://www.w3.org/2000/svg" viewBox="0 0 200 200" role="img" aria-label="Illustrated coach portrait placeholder">
  <rect width="200" height="200" fill="#e9efe9"/>
  <!-- shoulders / clothing -->
  <path d="M40 200 C40 158 66 142 100 142 C134 142 160 158 160 200 Z" fill="#27433a"/>
  <path d="M86 138 h28 v16 c0 8 -28 8 -28 0 Z" fill="#e3b48d"/>
  <!-- head -->
  <ellipse cx="100" cy="104" rx="34" ry="38" fill="#e3b48d"/>
  <!-- ears -->
  <circle cx="65" cy="106" r="7" fill="#e3b48d"/><circle cx="135" cy="106" r="7" fill="#e3b48d"/>
  <path d="M64 100 C62 86 66 78 72 74 C70 84 70 92 70 98 Z M136 100 C138 86 134 78 128 74 C130 84 130 92 130 98 Z" fill="#8a8d90"/>
</svg>